PathFileType	4	(X/Y/Z)	C:\Users\GVLAB1\Desktop\Emotion\trc\EMLATRE05.4.trc																																																																																																																									
DataRate	CameraRate	NumFrames	NumMarkers	Units	OrigDataRate	OrigDataStartFrame	OrigNumFrames																																																																																																																					
30	30	4	41	mm	30	227	302																																																																																																																					
Frame#	Time	EMLA_LFHD			EMLA_RFHD			EMLA_LBHD			EMLA_RBHD			EMLA_LFTShould			EMLA_RFTShould			EMLA_LRRShould			EMLA_RRRShould			EMLA_T10			EMLA_STRN			EMLA_TRUN			EMLA_LSHO			EMLA_LUPA			EMLA_LELB			EMLA_LFRM			EMLA_LWRA			EMLA_LWRB			EMLA_LFIN			EMLA_RSHO			EMLA_RUPA			EMLA_RELB			EMLA_RFRM			EMLA_RWRA			EMLA_RWRB			EMLA_RFIN			EMLA_LFWT			EMLA_RFWT			EMLA_LBWT			EMLA_RBWT			EMLA_LHTI			EMLA_LKNE			EMLA_LSHN			EMLA_LANK			EMLA_LHEE			EMLA_LTOE			EMLA_RTHI			EMLA_RKNE			EMLA_RSHN			EMLA_RANK			EMLA_RHEE			EMLA_RTOE		
		X1	Y1	Z1	X2	Y2	Z2	X3	Y3	Z3	X4	Y4	Z4	X5	Y5	Z5	X6	Y6	Z6	X7	Y7	Z7	X8	Y8	Z8	X9	Y9	Z9	X10	Y10	Z10	X11	Y11	Z11	X12	Y12	Z12	X13	Y13	Z13	X14	Y14	Z14	X15	Y15	Z15	X16	Y16	Z16	X17	Y17	Z17	X18	Y18	Z18	X19	Y19	Z19	X20	Y20	Z20	X21	Y21	Z21	X22	Y22	Z22	X23	Y23	Z23	X24	Y24	Z24	X25	Y25	Z25	X26	Y26	Z26	X27	Y27	Z27	X28	Y28	Z28	X29	Y29	Z29	X30	Y30	Z30	X31	Y31	Z31	X32	Y32	Z32	X33	Y33	Z33	X34	Y34	Z34	X35	Y35	Z35	X36	Y36	Z36	X37	Y37	Z37	X38	Y38	Z38	X39	Y39	Z39	X40	Y40	Z40	X41	Y41	Z41
																																																																																																																												
227	1.13	472.20505	1559.23181	752.88727	308.08505	1524.57166	784.16412	449.49326	1603.21228	610.31842	261.52408	1567.47058	644.61719	448.73767	1352.7959	677.06799	303.60052	1353.30933	655.02356	475.24411	1428.25635	537.50568	314.37881	1428.3927	511.9563	414.28696	1274.54712	434.26407	368.49307	1280.401	688.48584	359.97107	1175.70557	679.22754	579.34467	1376.16699	658.91962	634.21802	1191.85718	656.448	645.01196	1044.18799	657.39923	639.67798	908.90387	664.43024	535.60358	768.69983	724.05725	604.49451	745.61218	677.74182	584.13086	715.66693	737.10956	192.26031	1403.33838	582.29681	125.38712	1218.64258	534.81335	107.59517	1083.43005	478.90961	111.53014	978.15747	461.45917	186.72165	813.63763	554.79681	145.3512	797.45752	479.90161	132.05862	762.8548	534.44781	462.42932	960.71448	639.97424	238.79984	943.16345	573.46826	491.44781	989.60358	438.56204	318.06155	985.86707	403.28503	530.02496	688.40668	501.1275	513.07629	493.17551	578.76477	476.71454	309.94818	595.88794	476.8996	131.79492	529.00342	412.23129	55.97415	463.64902	427.66959	45.38196	663.6861	276.61609	673.49158	391.02216	198.83897	484.65259	433.58405	262.65479	296.14178	320.90976	271.69501	227.69138	150.18904	345.96378	232.25014	109.20685	284.63071	61.03072	179.79552
228	1.135	470.31033	1547.54895	780.84412	304.0972	1516.20227	799.46747	457.5943	1602.64038	640.96912	266.77072	1570.79993	661.5119	449.47144	1353.19104	693.00171	304.78848	1355.88733	668.68988	479.11481	1427.12585	553.41528	319.45218	1430.14514	525.28851	418.00632	1274.04138	449.96179	368.21274	1282.18103	703.58539	358.68198	1177.52075	694.59906	580.32458	1375.2583	676.48914	635.04126	1191.58191	681.03168	645.94379	1043.79163	689.22235	636.77094	908.36975	703.67682	526.47742	775.3717	767.87457	596.49487	747.16132	726.51678	572.8551	722.69757	787.50873	195.27335	1407.09741	593.51263	130.36127	1221.59619	548.53992	114.45535	1085.79602	493.22318	118.52555	980.11682	477.77734	188.72781	817.07025	578.10669	149.67085	799.66364	501.6998	132.70354	768.00946	557.36475	462.78915	961.27521	658.0094	239.25996	944.72803	590.92151	491.46396	989.05365	455.22559	317.69958	984.99384	420.07187	529.8623	688.67004	514.74481	512.13062	491.9046	589.03589	475.46997	308.58307	602.19073	476.37073	131.75946	531.61035	412.03769	56.79051	464.01526	427.31735	45.24042	663.8595	270.66907	669.85394	417.07962	197.80357	482.90799	469.4353	262.71146	296.71066	355.53992	275.02621	230.22829	184.11488	351.50476	231.01709	143.52129	275.50983	65.11871	217.1806
229	1.14	467.16476	1534.94104	806.74005	299.32813	1507.71399	813.40613	464.52866	1601.41248	671.22473	271.83734	1574.08459	678.50861	450.51495	1353.87573	707.82721	306.27005	1357.76465	682.38751	482.36642	1426.74524	567.85242	322.7164	1431.15393	538.68451	420.41064	1273.70544	464.7746	368.70731	1283.66455	718.08624	358.49072	1179.07336	709.62866	581.32965	1375.23865	692.04846	634.43024	1191.93823	704.05719	644.12695	1044.72632	719.84766	632.15356	909.98859	741.71448	518.02496	782.81506	810.70184	588.85065	751.38916	772.88959	562.974	730.71289	834.76471	197.44617	1409.59497	606.3197	133.83334	1223.07629	563.39435	118.31331	1087.57837	508.09558	122.17717	981.86664	492.82678	187.02158	819.24725	596.6051	151.36989	800.88489	518.68463	130.9769	770.67175	573.87775	462.3233	961.27405	675.53479	238.97017	946.30981	607.81708	490.68973	987.89618	471.85416	316.74225	983.46277	436.22415	527.34808	689.10199	527.45496	510.61612	491.07559	597.22552	474.10483	307.23059	606.97998	475.81384	131.71024	533.67102	411.74969	57.38446	464.28156	426.94226	45.13507	663.98657	267.69275	666.48291	441.50565	198.38277	481.68332	504.849	262.59641	293.98401	394.74008	276.6973	224.68742	224.61871	354.54303	220.34906	183.27097	265.37286	64.43641	265.05832
230	1.145	463.00308	1522.53772	830.84528	294.30771	1499.73706	826.95654	469.2179	1598.29663	700.50812	275.77899	1576.26392	695.84552	451.48975	1355.08423	722.2019	307.22366	1359.13611	696.51605	484.03192	1426.38	581.51892	324.30759	1431.66614	552.45209	421.73367	1273.19421	479.22217	369.34512	1285.17456	732.72406	358.85764	1180.54187	724.71851	582.33685	1375.90955	706.2652	632.53589	1192.89233	724.60211	640.09344	1046.69153	748.36346	626.49384	913.32898	776.79779	510.77625	790.71381	851.54791	581.34216	756.7392	815.61407	555.20667	739.33411	878.14813	198.99184	1410.67847	619.80121	134.57584	1224.36133	576.77533	118.99879	1088.73242	521.38837	122.66781	983.06537	505.73383	183.02332	820.4646	611.97778	150.86543	801.90851	532.5675	128.28355	771.55701	586.30078	460.9249	961.25952	693.13519	237.81602	947.90125	624.19714	489.76718	987.26221	488.76407	315.92404	982.43622	452.30664	525.26331	690.05151	538.60785	509.38062	490.54742	603.20844	473.21082	306.44174	610.47229	475.36911	132.04332	534.74432	411.52924	57.91204	464.34872	426.77319	45.06475	663.97791	266.54208	663.44971	466.41174	199.21965	480.75299	540.61194	262.82651	289.03796	437.25586	275.93716	213.51419	269.78174	355.28751	205.72681	228.56583	256.78171	58.75307	313.82544
